<svg t="1504532979379" class="icon" style="" viewBox="0 0 1024 1024" version="1.1" xmlns="http://www.w3.org/2000/svg" p-id="3016" xmlns:xlink="http://www.w3.org/1999/xlink" width="200" height="200"><defs><style type="text/css"></style></defs><path d="M711.446 212l0-99.374c0-27.328-22.359-49.688-49.688-49.688l-298.123 0c-27.328 0-49.688 22.359-49.688 49.688L313.947 212l-248.435 0 0 49.688 99.374 0 0 645.933c0 27.328 22.359 49.688 49.688 49.688l596.246 0c27.328 0 49.688-22.359 49.688-49.688L860.508 261.688l99.374 0L959.882 212 711.446 212zM661.759 112.626 661.759 212 363.636 212l0-99.374L661.759 112.626zM810.821 907.621 214.574 907.621 214.574 261.688l596.247 0L810.821 907.621zM661.759 361.062l49.688 0L711.447 758.56l-49.688 0L661.759 361.062zM537.542 758.56 537.542 361.062l-24.844 0-24.844 0L487.854 758.56l24.844 0L537.542 758.56zM313.949 361.062l49.688 0L363.637 758.56l-49.688 0L313.949 361.062z" p-id="3017" fill="#ee7a23"></path></svg>